paper_minjerk_fatigue_10cycle_first
version=1
nRows=178
nColumns=3
inDegrees=yes
endheader
time	r_shoulder_elev	r_elbow_flex
29.9900	20.000000	55.762727
30.0000	20.000000	55.614612
30.0100	20.000000	54.583002
30.0200	20.000000	54.216113
30.0300	20.000000	53.903581
30.0400	20.000000	52.846204
30.0500	20.000000	51.787908
30.0600	20.000000	50.708890
30.0700	20.000000	49.415430
30.0800	20.000000	48.076320
30.0900	20.000000	46.894613
30.1000	20.000000	45.012498
30.1100	20.000000	44.032536
30.1200	20.000000	43.141082
30.1300	20.000000	42.282896
30.1400	20.000000	41.526557
30.1500	20.000000	41.140244
30.1600	20.000000	40.266669
30.1700	20.000000	39.670881
30.1800	20.000000	39.878203
30.1900	20.000000	39.111930
30.2000	20.000000	38.403330
30.2100	20.000000	37.818218
30.2200	20.000000	36.839519
30.2300	20.000000	36.173331
30.2400	20.000000	35.048546
30.2500	20.000000	33.772201
30.2600	20.000000	32.701278
30.2700	20.000000	31.535923
30.2800	20.000000	30.850847
30.2900	20.000000	29.309049
30.3000	20.000000	29.018748
30.3100	20.000000	28.887064
30.3200	20.000000	28.549803
30.3300	20.000000	28.272116
30.3400	20.000000	28.525672
30.3500	20.000000	28.018179
30.3600	20.000000	28.085542
30.3700	20.000000	27.733139
30.3800	20.000000	27.245331
30.3900	20.000000	26.424581
30.4000	20.000000	25.840250
30.4100	20.000000	25.361966
30.4200	20.000000	24.371476
30.4300	20.000000	23.678116
30.4400	20.000000	22.741691
30.4500	20.000000	21.815407
30.4600	20.000000	21.730718
30.4700	20.000000	21.613581
30.4800	20.000000	21.928330
30.4900	20.000000	21.995976
30.5000	20.000000	22.014557
30.5100	20.000000	21.917659
30.5200	20.000000	22.306476
30.5300	20.000000	22.279080
30.5400	20.000000	22.215107
30.5500	20.000000	21.768265
30.5600	20.000000	21.808069
30.5700	20.000000	21.225213
30.5800	20.000000	20.887564
30.5900	20.000000	19.819652
30.6000	20.000000	19.412309
30.6100	20.000000	20.149252
30.6200	20.000000	18.866198
30.6300	20.000000	19.083460
30.6400	20.000000	19.234216
30.6500	20.000000	19.166039
30.6600	20.000000	20.165948
30.6700	20.000000	20.163116
30.6800	20.000000	20.614574
30.6900	20.000000	21.331487
30.7000	20.000000	20.927957
30.7100	20.000000	21.051189
30.7200	20.000000	20.000000
30.7300	20.000000	20.000000
30.7400	20.000000	20.000000
30.7500	20.000000	20.000000
30.7600	20.000000	20.000000
30.7700	20.000000	20.000000
30.7800	20.000000	20.000000
30.7900	20.000000	20.000000
30.8000	20.000000	20.000000
30.8100	20.000000	20.000000
30.8200	20.000000	20.000000
30.8300	20.000000	20.000000
30.8400	20.000000	20.000000
30.8500	20.000000	20.000000
30.8600	20.000000	20.000000
30.8700	20.000000	20.000000
30.8800	20.000000	20.000000
30.8900	20.000000	20.000000
30.9000	20.000000	20.000000
30.9100	20.000000	20.000000
30.9200	20.000000	19.740752
30.9300	20.000000	18.991676
30.9400	20.000000	19.046630
30.9500	20.000000	18.859493
30.9600	20.000000	18.721529
30.9700	20.000000	18.974948
30.9800	20.000000	19.329268
30.9900	20.000000	19.617095
31.0000	20.000000	19.961736
31.0100	20.000000	20.853238
31.0200	20.000000	20.777340
31.0300	20.000000	21.645448
31.0400	20.000000	21.365239
31.0500	20.000000	21.580672
31.0600	20.000000	21.649284
31.0700	20.000000	20.203214
31.0800	20.000000	20.314616
31.0900	20.000000	19.797612
31.1000	20.000000	19.951045
31.1100	20.000000	19.092325
31.1200	20.000000	19.796506
31.1300	20.000000	18.718189
31.1400	20.000000	19.464773
31.1500	20.000000	19.677914
31.1600	20.000000	20.440512
31.1700	20.000000	20.732202
31.1800	20.000000	21.322020
31.1900	20.000000	21.431297
31.2000	20.000000	22.283087
31.2100	20.000000	22.019738
31.2200	20.000000	22.054301
31.2300	20.000000	22.248064
31.2400	20.000000	21.892246
31.2500	20.000000	21.835920
31.2600	20.000000	20.845374
31.2700	20.000000	21.038445
31.2800	20.000000	20.867274
31.2900	20.000000	20.732208
31.3000	20.000000	20.824105
31.3100	20.000000	21.428163
31.3200	20.000000	22.247369
31.3300	20.000000	22.571886
31.3400	20.000000	23.588256
31.3500	20.000000	23.940908
31.3600	20.000000	25.022885
31.3700	20.000000	24.968509
31.3800	20.000000	25.136582
31.3900	20.000000	24.799512
31.4000	20.000000	24.743669
31.4100	20.000000	25.018667
31.4200	20.000000	24.610170
31.4300	20.000000	24.530806
31.4400	20.000000	24.156098
31.4500	20.000000	24.333397
31.4600	20.000000	24.427822
31.4700	20.000000	25.088061
31.4800	20.000000	25.543478
31.4900	20.000000	26.827058
31.5000	20.000000	26.951071
31.5100	20.000000	28.245268
31.5200	20.000000	28.416740
31.5300	20.000000	29.204243
31.5400	20.000000	29.572405
31.5500	20.000000	30.421805
31.5600	20.000000	30.320871
31.5700	20.000000	30.222477
31.5800	20.000000	30.147119
31.5900	20.000000	29.677966
31.6000	20.000000	30.277593
31.6100	20.000000	30.327634
31.6200	20.000000	30.166791
31.6300	20.000000	30.589321
31.6400	20.000000	31.359667
31.6500	20.000000	31.905633
31.6600	20.000000	32.781697
31.6700	20.000000	33.639697
31.6800	20.000000	34.598111
31.6900	20.000000	35.399007
31.7000	20.000000	36.418399
31.7100	20.000000	36.662348
31.7200	20.000000	36.981200
31.7300	20.000000	37.110584
31.7400	20.000000	36.938096
31.7500	20.000000	37.751306
31.7600	20.000000	37.474078
